<svg width="439" height="436" viewBox="0 0 439 436" fill="none" xmlns="http://www.w3.org/2000/svg">
<g filter="url(#filter0_f_2752_6066)">
<path d="M199.508 32.4235C211.759 24.8446 227.241 24.8446 239.492 32.4235L257.861 43.7873C265.516 48.5231 274.307 51.1045 283.308 51.2591L304.904 51.6302C319.307 51.8776 332.332 60.2483 338.541 73.2473L343.955 70.6614L338.541 73.2473L347.85 92.7381C351.729 100.861 357.73 107.785 365.217 112.781L383.185 124.769C395.168 132.765 401.6 146.848 399.795 161.14L397.089 182.57C395.961 191.5 397.265 200.57 400.863 208.821L409.497 228.62C415.255 241.824 413.052 257.15 403.807 268.197L389.944 284.762C384.168 291.665 380.361 299.999 378.927 308.886L375.487 330.21C373.192 344.431 363.053 356.132 349.302 360.428L328.685 366.868C320.093 369.552 312.385 374.506 306.374 381.207L291.951 397.285C282.332 408.008 267.476 412.37 253.587 408.55L232.76 402.822C224.081 400.434 214.919 400.434 206.24 402.822L185.413 408.55C171.524 412.37 156.668 408.008 147.049 397.285L132.626 381.207C126.615 374.506 118.907 369.552 110.315 366.868L108.526 372.595L110.315 366.868L89.6976 360.428C75.9474 356.132 65.8082 344.431 63.5134 330.21L60.0727 308.886C58.6388 299.999 54.8325 291.665 49.0555 284.762L35.1932 268.197C25.948 257.15 23.7446 241.824 29.5029 228.62L38.1369 208.821C41.735 200.57 43.039 191.5 41.9112 182.57L39.2049 161.14C37.4001 146.848 43.8319 132.765 55.8151 124.769L73.7826 112.781C81.2704 107.785 87.2706 100.861 91.15 92.738L100.459 73.2473C106.668 60.2483 119.693 51.8776 134.096 51.6302L155.693 51.2591C164.693 51.1045 173.484 48.5231 181.139 43.7873L199.508 32.4235Z" stroke="#EAB6F2" stroke-width="12"/>
</g>
<defs>
<filter id="filter0_f_2752_6066" x="0.333984" y="0.740234" width="438.332" height="435.172" filterUnits="userSpaceOnUse" color-interpolation-filters="sRGB">
<feFlood flood-opacity="0" result="BackgroundImageFix"/>
<feBlend mode="normal" in="SourceGraphic" in2="BackgroundImageFix" result="shape"/>
<feGaussianBlur stdDeviation="10" result="effect1_foregroundBlur_2752_6066"/>
</filter>
</defs>
</svg>
