<svg width="647" height="642" viewBox="0 0 647 642" fill="none" xmlns="http://www.w3.org/2000/svg">
<g opacity="0.3" filter="url(#filter0_f_2752_6067)">
<path d="M303.508 32.4235C315.759 24.8446 331.241 24.8446 343.492 32.4235L387.952 59.9287C395.607 64.6645 404.399 67.2459 413.399 67.4005L465.671 68.2986C480.075 68.546 493.1 76.9167 499.308 89.9157L521.84 137.091C525.719 145.214 531.72 152.139 539.207 157.135L582.696 186.151C594.679 194.146 601.111 208.23 599.306 222.522L592.756 274.39C591.628 283.321 592.932 292.39 596.531 300.641L617.428 348.563C623.187 361.767 620.983 377.093 611.738 388.14L578.186 428.233C572.409 435.136 568.602 443.471 567.168 452.357L558.84 503.97C556.546 518.192 546.406 529.893 532.656 534.188L482.754 549.777C474.162 552.461 466.454 557.414 460.443 564.115L425.533 603.032C415.914 613.755 401.058 618.117 387.169 614.297L336.76 600.432C328.081 598.044 318.919 598.044 310.24 600.432L259.831 614.297C245.942 618.117 231.086 613.755 221.467 603.032L186.557 564.115C180.546 557.414 172.838 552.461 164.246 549.777L114.344 534.188C100.594 529.893 90.4545 518.192 88.1597 503.97L79.8317 452.357C78.3978 443.471 74.5915 435.136 68.8145 428.233L35.262 388.14C26.0168 377.093 23.8133 361.767 29.5716 348.563L50.4695 300.641C54.0676 292.39 55.3716 283.321 54.2438 274.39L47.6936 222.522C45.8887 208.23 52.3206 194.146 64.3037 186.151L107.793 157.135C115.28 152.139 121.281 145.214 125.16 137.091L147.692 89.9158C153.9 76.9167 166.925 68.546 181.329 68.2986L233.601 67.4005C242.601 67.2459 251.393 64.6645 259.048 59.9287L303.508 32.4235Z" stroke="#EAB6F2" stroke-width="12"/>
</g>
<defs>
<filter id="filter0_f_2752_6067" x="0.402344" y="0.740234" width="646.195" height="640.918" filterUnits="userSpaceOnUse" color-interpolation-filters="sRGB">
<feFlood flood-opacity="0" result="BackgroundImageFix"/>
<feBlend mode="normal" in="SourceGraphic" in2="BackgroundImageFix" result="shape"/>
<feGaussianBlur stdDeviation="10" result="effect1_foregroundBlur_2752_6067"/>
</filter>
</defs>
</svg>
